# xmcd
#
# Track frame offsets:
#      150
#      20043
#      38942
#      55041
#      73662
#      91213
#      105836
#      123579
#      140264
#      158628
#
# Disc length: 2329 seconds
#
# Revision: 0
# Processed by: cddbd v1.5.1PL0 Copyright (c) Steve Scherf et al.
# Submitted via: SoundClick v1.0
#
DISCID=7c09170a
DTITLE=AL Squilla - A Sound Performance
DYEAR=1900
DGENRE=
TTITLE0=Angela's Choice
TTITLE1=Slap It
TTITLE2=Bass Instinct
TTITLE3=Contoured Ladies
TTITLE4=Step It Up
TTITLE5=Sensual Kiss
TTITLE6=Fantasy
TTITLE7=Bounce
TTITLE8=Hot Walking Girl
TTITLE9=Head Turner
EXTD=
EXTT0=
EXTT1=
EXTT2=
EXTT3=
EXTT4=
EXTT5=
EXTT6=
EXTT7=
EXTT8=
EXTT9=
PLAYORDER=
